<!--?xml version="1.0" encoding="utf-8"?-->
<!-- Generator: Adobe Illustrator 22.1.0, SVG Export Plug-In . SVG Version: 6.00 Build 0)  -->
<svg version="1.1" id="レイヤー_1" xmlns="http://www.w3.org/2000/svg" xmlns:xlink="http://www.w3.org/1999/xlink" x="0px" y="0px" viewBox="0 0 500 500" style="" xml:space="preserve">
<path style="display:none;stroke:#FFFFFF;stroke-miterlimit:10;" width="740.615" height="706.607" d="M-120.308 -81.848 L620.307 -81.848 L620.307 624.759 L-120.308 624.759 Z" class="ZfEzEILh_0"></path>
<g id="arrow">
	<g>
		<path style="fill:none;stroke:#FFFFFF;stroke-width:10;stroke-miterlimit:10;" d="M500,366.24L247.708,498.06" class="ZfEzEILh_1"></path>
		<path style="fill:none;stroke:#FFFFFF;stroke-width:10;stroke-miterlimit:10;" d="M0,366.24L252.292,498.06" class="ZfEzEILh_2"></path>
	</g>
</g>
<g>
	<path style="fill:none;stroke:#FFFFFF;stroke-width:3;stroke-miterlimit:10;" d="M81.283,307.889
		c-1.641-1.044-5.222-2.611-9.997-2.611c-7.907,0-10.892,4.85-10.892,8.952c0,5.596,3.432,8.43,11.041,11.638
		c9.176,3.88,13.875,8.579,13.875,16.711c0,9.026-6.565,15.964-18.799,15.964c-5.147,0-10.742-1.566-13.577-3.58l1.716-5.147
		c3.059,2.014,7.609,3.506,12.234,3.506c7.609,0,12.085-4.104,12.085-10.221c0-5.595-3.059-9.026-10.444-12.01
		c-8.579-3.208-14.397-8.206-14.397-16.039c0-8.654,7.012-14.995,17.382-14.995c5.371,0,9.474,1.343,11.638,2.686L81.283,307.889z" class="ZfEzEILh_3"></path>
	<path style="fill:none;stroke:#FFFFFF;stroke-width:3;stroke-miterlimit:10;" d="M122.465,356.229
		c-1.791,0.896-5.819,2.313-11.041,2.313c-11.638,0-19.321-8.28-19.321-20.738c0-12.533,8.28-21.709,20.813-21.709
		c4.55,0,8.206,1.343,9.772,2.163l-1.566,4.999c-1.716-0.971-4.402-2.089-8.355-2.089c-9.399,0-14.323,7.534-14.323,16.263
		c0,9.847,5.894,16.039,14.1,16.039c4.028,0,6.789-1.119,8.803-2.015L122.465,356.229z" class="ZfEzEILh_4"></path>
	<path style="fill:none;stroke:#FFFFFF;stroke-width:3;stroke-miterlimit:10;" d="M149.696,322.286
		c-0.671-0.074-1.343-0.148-2.238-0.148c-6.714,0-10.146,6.639-10.146,13.502v22.082h-6.192v-28.497
		c0-4.327-0.075-8.281-0.298-12.16h5.446l0.298,7.833h0.224c1.791-5.072,6.043-8.729,11.041-8.729c0.671,0,1.194,0.149,1.865,0.225
		V322.286z" class="ZfEzEILh_5"></path>
	<path style="fill:none;stroke:#FFFFFF;stroke-width:3;stroke-miterlimit:10;" d="M191.473,337.058
		c0,15.144-9.997,21.56-19.023,21.56c-10.444,0-18.501-7.833-18.501-20.963c0-13.876,8.653-21.56,19.023-21.56
		C184.087,316.095,191.473,324.6,191.473,337.058z M172.749,320.943c-8.803,0-12.458,8.654-12.458,16.487
		c0,9.026,4.999,16.337,12.309,16.337c7.385,0,12.533-7.311,12.533-16.486C185.132,330.045,181.626,320.943,172.749,320.943z" class="ZfEzEILh_6"></path>
	<path style="fill:none;stroke:#FFFFFF;stroke-width:3;stroke-miterlimit:10;" d="M207.066,357.722h-6.192v-59.68h6.192V357.722z" class="ZfEzEILh_7"></path>
	<path style="fill:none;stroke:#FFFFFF;stroke-width:3;stroke-miterlimit:10;" d="M225.567,357.722h-6.192v-59.68h6.192V357.722z" class="ZfEzEILh_8"></path>
	<path style="fill:none;stroke:#FFFFFF;stroke-width:3;stroke-miterlimit:10;" d="M255.482,301.622
		c4.178-0.671,9.026-1.193,14.323-1.193c22.828,0,29.393,13.503,29.393,27.453c0,9.026-2.387,16.71-7.759,22.306
		c-4.998,5.147-13.278,7.981-23.647,7.981c-4.7,0-8.729-0.148-12.31-0.597V301.622z M261.675,352.798
		c1.864,0.299,4.55,0.373,7.236,0.373c15.367,0,23.797-8.729,23.797-24.991c0-14.771-7.907-22.753-22.679-22.753
		c-3.58,0-6.415,0.373-8.354,0.746V352.798z" class="ZfEzEILh_9"></path>
	<path style="fill:none;stroke:#FFFFFF;stroke-width:3;stroke-miterlimit:10;" d="M342.917,337.058
		c0,15.144-9.996,21.56-19.023,21.56c-10.443,0-18.501-7.833-18.501-20.963c0-13.876,8.654-21.56,19.023-21.56
		C335.531,316.095,342.917,324.6,342.917,337.058z M324.192,320.943c-8.803,0-12.458,8.654-12.458,16.487
		c0,9.026,4.998,16.337,12.309,16.337c7.386,0,12.533-7.311,12.533-16.486C336.576,330.045,333.069,320.943,324.192,320.943z" class="ZfEzEILh_10"></path>
	<path style="fill:none;stroke:#FFFFFF;stroke-width:3;stroke-miterlimit:10;" d="M404.538,316.99l-12.905,40.731h-5.521
		l-6.416-20.44c-1.491-4.625-2.61-8.729-3.58-13.428h-0.225c-0.97,4.849-2.237,9.101-3.729,13.502l-6.789,20.366h-5.595
		l-12.011-40.731h6.416l5.669,21.335c1.119,4.551,2.238,8.729,3.06,12.906h0.224c0.895-4.028,2.237-8.43,3.58-12.831l6.789-21.41
		h5.371l6.49,21.037c1.417,4.774,2.611,9.102,3.581,13.204h0.224c0.746-4.028,1.865-8.28,3.208-13.13l5.968-21.111H404.538z" class="ZfEzEILh_11"></path>
	<path style="fill:none;stroke:#FFFFFF;stroke-width:3;stroke-miterlimit:10;" d="M444.526,357.722h-6.191V333.7
		c0-6.64-2.388-12.458-9.475-12.458c-5.296,0-10.668,4.476-10.668,11.563v24.916h-6.191v-30.213c0-4.178-0.149-7.236-0.299-10.519
		h5.521l0.373,6.639h0.149c2.015-3.953,6.714-7.534,13.055-7.534c5.073,0,13.727,3.059,13.727,16.859V357.722z" class="ZfEzEILh_12"></path>
</g>
<g id="mouse">
	<path style="fill:none;stroke:#FFFFFF;stroke-width:10;stroke-miterlimit:10;" d="M332.648,32.042
		c-13.427-13.448-32.127-21.805-52.632-21.8h-60.038c-20.505-0.005-39.205,8.351-52.626,21.8
		c-13.448,13.421-21.805,32.121-21.8,52.626v84.055c0,30.043,11.504,57.444,30.301,77.358c18.76,19.919,45.098,32.476,74.147,32.465
		c29.049,0.011,55.387-12.545,74.141-32.465c18.802-19.914,30.306-47.309,30.306-77.358V84.668
		C354.453,64.163,346.091,45.463,332.648,32.042z M174.323,84.668c0.005-12.653,5.086-23.98,13.367-32.282
		c8.308-8.286,19.635-13.367,32.288-13.373h19.748v68.518h-65.403V84.668z M325.677,168.723c0,22.664-8.652,42.986-22.455,57.616
		c-13.84,14.624-32.535,23.426-53.222,23.437c-20.693-0.011-39.382-8.814-53.222-23.437c-13.803-14.63-22.455-34.952-22.455-57.616
		v-40.644h151.354L325.677,168.723L325.677,168.723z M325.677,107.53h-65.403V39.013h19.742c12.653,0.005,23.98,5.086,32.288,13.373
		c8.286,8.303,13.367,19.629,13.373,32.282V107.53z" class="ZfEzEILh_13"></path>
</g>

<style data-made-with="vivus-instant">.ZfEzEILh_0{stroke-dasharray:2895 2897;stroke-dashoffset:2896;animation:ZfEzEILh_draw_0 7200ms linear 0ms infinite,ZfEzEILh_fade 7200ms linear 0ms infinite;}.ZfEzEILh_1{stroke-dasharray:285 287;stroke-dashoffset:286;animation:ZfEzEILh_draw_1 7200ms linear 0ms infinite,ZfEzEILh_fade 7200ms linear 0ms infinite;}.ZfEzEILh_2{stroke-dasharray:285 287;stroke-dashoffset:286;animation:ZfEzEILh_draw_2 7200ms linear 0ms infinite,ZfEzEILh_fade 7200ms linear 0ms infinite;}.ZfEzEILh_3{stroke-dasharray:229 231;stroke-dashoffset:230;animation:ZfEzEILh_draw_3 7200ms linear 0ms infinite,ZfEzEILh_fade 7200ms linear 0ms infinite;}.ZfEzEILh_4{stroke-dasharray:164 166;stroke-dashoffset:165;animation:ZfEzEILh_draw_4 7200ms linear 0ms infinite,ZfEzEILh_fade 7200ms linear 0ms infinite;}.ZfEzEILh_5{stroke-dasharray:127 129;stroke-dashoffset:128;animation:ZfEzEILh_draw_5 7200ms linear 0ms infinite,ZfEzEILh_fade 7200ms linear 0ms infinite;}.ZfEzEILh_6{stroke-dasharray:220 222;stroke-dashoffset:221;animation:ZfEzEILh_draw_6 7200ms linear 0ms infinite,ZfEzEILh_fade 7200ms linear 0ms infinite;}.ZfEzEILh_7{stroke-dasharray:132 134;stroke-dashoffset:133;animation:ZfEzEILh_draw_7 7200ms linear 0ms infinite,ZfEzEILh_fade 7200ms linear 0ms infinite;}.ZfEzEILh_8{stroke-dasharray:132 134;stroke-dashoffset:133;animation:ZfEzEILh_draw_8 7200ms linear 0ms infinite,ZfEzEILh_fade 7200ms linear 0ms infinite;}.ZfEzEILh_9{stroke-dasharray:317 319;stroke-dashoffset:318;animation:ZfEzEILh_draw_9 7200ms linear 0ms infinite,ZfEzEILh_fade 7200ms linear 0ms infinite;}.ZfEzEILh_10{stroke-dasharray:220 222;stroke-dashoffset:221;animation:ZfEzEILh_draw_10 7200ms linear 0ms infinite,ZfEzEILh_fade 7200ms linear 0ms infinite;}.ZfEzEILh_11{stroke-dasharray:329 331;stroke-dashoffset:330;animation:ZfEzEILh_draw_11 7200ms linear 0ms infinite,ZfEzEILh_fade 7200ms linear 0ms infinite;}.ZfEzEILh_12{stroke-dasharray:215 217;stroke-dashoffset:216;animation:ZfEzEILh_draw_12 7200ms linear 0ms infinite,ZfEzEILh_fade 7200ms linear 0ms infinite;}.ZfEzEILh_13{stroke-dasharray:1775 1777;stroke-dashoffset:1776;animation:ZfEzEILh_draw_13 7200ms linear 0ms infinite,ZfEzEILh_fade 7200ms linear 0ms infinite;}@keyframes ZfEzEILh_draw{100%{stroke-dashoffset:0;}}@keyframes ZfEzEILh_fade{0%{stroke-opacity:1;}94.44444444444444%{stroke-opacity:1;}100%{stroke-opacity:0;}}@keyframes ZfEzEILh_draw_0{11.11111111111111%{stroke-dashoffset: 2896}20.370370370370374%{ stroke-dashoffset: 0;}100%{ stroke-dashoffset: 0;}}@keyframes ZfEzEILh_draw_1{11.467236467236468%{stroke-dashoffset: 286}20.726495726495727%{ stroke-dashoffset: 0;}100%{ stroke-dashoffset: 0;}}@keyframes ZfEzEILh_draw_2{11.823361823361823%{stroke-dashoffset: 286}21.082621082621085%{ stroke-dashoffset: 0;}100%{ stroke-dashoffset: 0;}}@keyframes ZfEzEILh_draw_3{12.179487179487179%{stroke-dashoffset: 230}21.43874643874644%{ stroke-dashoffset: 0;}100%{ stroke-dashoffset: 0;}}@keyframes ZfEzEILh_draw_4{12.535612535612536%{stroke-dashoffset: 165}21.794871794871796%{ stroke-dashoffset: 0;}100%{ stroke-dashoffset: 0;}}@keyframes ZfEzEILh_draw_5{12.891737891737892%{stroke-dashoffset: 128}22.15099715099715%{ stroke-dashoffset: 0;}100%{ stroke-dashoffset: 0;}}@keyframes ZfEzEILh_draw_6{13.247863247863249%{stroke-dashoffset: 221}22.507122507122507%{ stroke-dashoffset: 0;}100%{ stroke-dashoffset: 0;}}@keyframes ZfEzEILh_draw_7{13.603988603988604%{stroke-dashoffset: 133}22.863247863247864%{ stroke-dashoffset: 0;}100%{ stroke-dashoffset: 0;}}@keyframes ZfEzEILh_draw_8{13.96011396011396%{stroke-dashoffset: 133}23.21937321937322%{ stroke-dashoffset: 0;}100%{ stroke-dashoffset: 0;}}@keyframes ZfEzEILh_draw_9{14.316239316239315%{stroke-dashoffset: 318}23.575498575498578%{ stroke-dashoffset: 0;}100%{ stroke-dashoffset: 0;}}@keyframes ZfEzEILh_draw_10{14.67236467236467%{stroke-dashoffset: 221}23.931623931623932%{ stroke-dashoffset: 0;}100%{ stroke-dashoffset: 0;}}@keyframes ZfEzEILh_draw_11{15.028490028490026%{stroke-dashoffset: 330}24.28774928774929%{ stroke-dashoffset: 0;}100%{ stroke-dashoffset: 0;}}@keyframes ZfEzEILh_draw_12{15.384615384615383%{stroke-dashoffset: 216}24.643874643874643%{ stroke-dashoffset: 0;}100%{ stroke-dashoffset: 0;}}@keyframes ZfEzEILh_draw_13{15.740740740740739%{stroke-dashoffset: 1776}25%{ stroke-dashoffset: 0;}100%{ stroke-dashoffset: 0;}}</style></svg>
